<!DOCTYPE xml><svg t="1584718501322" class="icon" viewBox="0 0 1024 1024" version="1.1" xmlns="http://www.w3.org/2000/svg" p-id="3604" xmlns:xlink="http://www.w3.org/1999/xlink" width="200" height="200"><defs><style type="text/css"></style></defs><path d="M608 864a32 32 0 1 0 0-64v64zM41.376 297.376a32 32 0 0 0 45.248 45.248L41.376 297.376zM192 192l22.624-22.624a32 32 0 0 0-45.248 0L192 192z m105.376 150.624a32 32 0 0 0 45.248-45.248l-45.248 45.248zM416 160a32 32 0 1 0 0 64V160z m416 160h32-32z m150.624 406.624a32 32 0 0 0-45.248-45.248l45.248 45.248zM832 832l-22.624 22.624a32 32 0 0 0 45.248 0L832 832z m-105.376-150.624a32 32 0 0 0-45.248 45.248l45.248-45.248zM608 800h-288v64h288v-64z m-288 0a96 96 0 0 1-96-96H160a160 160 0 0 0 160 160v-64zM86.624 342.624l128-128-45.248-45.248-128 128 45.248 45.248z m82.752-128l128 128 45.248-45.248-128-128-45.248 45.248zM416 224h288V160h-288v64z m288 0a96 96 0 0 1 96 96h64a160 160 0 0 0-160-160v64z m233.376 457.376l-128 128 45.248 45.248 128-128-45.248-45.248z m-82.752 128l-128-128-45.248 45.248 128 128 45.248-45.248zM800 320v512h64V320h-64zM224 704V192H160v512h64z" p-id="3606"></path></svg>